# xmcd
#
# Track frame offsets:
#	150
#	9830
#	26140
#	39364
#	51863
#	63819
#	74431
#	85952
#	96866
#	107410
#	120424
#	132547
#	145093
#	154542
#	163991
#	175415
#	187448
#	198848
#	212450
#	227635
#	237830
#	250212
#	264137
#	272961
#	285121
#	297238
#	309384
#	324671
#	334071
#	345973
#
# Disc length: 4759 seconds
#
# Revision: 3
# Processed by: cddbd v1.5.2PL0 Copyright (c) Steve Scherf et al.
# Submitted via: EasyCDDAExtractor 10.0.2.1
#
DISCID=a812951e
DTITLE=Jimmy Martin - 1954 - 1974 - CD2
DYEAR=1994
DGENRE=Bluegrass
TTITLE0=God Is Always The Same - 1961
TTITLE1=All The Good Times Are Past And Gone - 1960
TTITLE2=You Don't Know My Mind - 1960
TTITLE3=Homesick - 1960
TTITLE4=Old Fashoned Christmas - 1960
TTITLE5=Hi-De Diddle - 1960
TTITLE6=Don't Cry To Me - 1961
TTITLE7=My Walking Shoes - 1960
TTITLE8=Hold Onto God's Unchanging Hand - 1960
TTITLE9=Undo What's Been Done - 1969
TTITLE10=Deep River - 1960
TTITLE11=What Was I Supposed To Do - 1960
TTITLE12=I Can, I Will, I Do Believe - 1961
TTITLE13=There Was A Love - 1961
TTITLE14=Poor Little Bull Frog - 1961
TTITLE15=Steppin' Stones - 1962
TTITLE16=There Ain't Nobody Gonna Miss Me When I'm Gone - 1962
TTITLE17=Little Angels In Heaven - 1970
TTITLE18=Pretending I Don't Care -1962
TTITLE19=Leavin' Town - 1962
TTITLE20=Don't Give Your Heart To A Rambler - 1962
TTITLE21=God Guide Our Leader's Hand - 1961
TTITLE22=Train 45 - 1962
TTITLE23=Mr. Engineer - 1966
TTITLE24=This World Is Not My Home - 1963
TTITLE25=Drink Up And Go Home - 1962
TTITLE26=Lord I'm Coming Home - 1963
TTITLE27=Goodbye - 1963
TTITLE28=Pray The Clouds Away - 1963
TTITLE29=Give Me The Roses Now - 1963
EXTD=Bear Family Recoeds - BCD 15705 EI\n5 CD Boxed Set With Book/discography\n
EXTD=1994  recorded Nov 1954 - Apr 1974\nTitles include release year. ID3G:   
EXTD=2
EXTT0=
EXTT1=
EXTT2=
EXTT3=
EXTT4=
EXTT5=
EXTT6=
EXTT7=
EXTT8=
EXTT9=
EXTT10=
EXTT11=
EXTT12=
EXTT13=
EXTT14=
EXTT15=
EXTT16=
EXTT17=
EXTT18=
EXTT19=
EXTT20=
EXTT21=
EXTT22=
EXTT23=
EXTT24=
EXTT25=
EXTT26=
EXTT27=
EXTT28=
EXTT29=
PLAYORDER=
